<svg width="477" height="348" xmlns="http://www.w3.org/2000/svg" xmlns:xlink="http://www.w3.org/1999/xlink" xml:space="preserve" overflow="hidden"><g transform="translate(-1558 -605)"><g><path d="M1612 757C1612 721.654 1695.5 693 1798.5 693 1901.5 693 1985 721.654 1985 757 1985 792.346 1901.5 821 1798.5 821 1695.5 821 1612 792.346 1612 757Z" fill="#156082" fill-rule="evenodd" fill-opacity="0.192157"/><text fill="#FFFFFF" fill-opacity="1" font-family="Arial,Arial_MSFontService,sans-serif" font-style="normal" font-variant="normal" font-weight="400" font-stretch="normal" font-size="14" text-anchor="start" direction="ltr" writing-mode="lr-tb" unicode-bidi="normal" text-decoration="none" transform="matrix(1 0 0 1 1663.2 729)">G</text><path d="M1603 805.5C1603 746.682 1690.3 699 1798 699 1905.7 699 1993 746.682 1993 805.5 1993 864.318 1905.7 912 1798 912 1690.3 912 1603 864.318 1603 805.5Z" fill="#FFEB6E" fill-rule="evenodd" fill-opacity="1"/><text fill="#00284B" fill-opacity="1" font-family="Arial,Arial_MSFontService,sans-serif" font-style="normal" font-variant="normal" font-weight="700" font-stretch="normal" font-size="87" text-anchor="start" direction="ltr" writing-mode="lr-tb" unicode-bidi="normal" text-decoration="none" transform="matrix(1 0 0 1 1651.66 833)">Link</text><text fill="#C9191E" fill-opacity="1" font-family="Arial,Arial_MSFontService,sans-serif" font-style="normal" font-variant="normal" font-weight="700" font-stretch="normal" font-size="92" text-anchor="start" direction="ltr" writing-mode="lr-tb" unicode-bidi="normal" text-decoration="none" transform="matrix(1 0 0 1 1848.74 833)">Ai</text><path d="M1801.74 807.666 1813.18 801.066 1868.01 896.042 1856.58 902.642Z" fill="#00284B" fill-rule="nonzero" fill-opacity="1"/><path d="M1856.67 812.934 1868.88 817.954 1832.49 906.464 1820.28 901.444Z" fill="#C9191E" fill-rule="nonzero" fill-opacity="1"/><path d="M1659 846.167C1659 845.522 1659.52 845 1660.17 845L1805.83 845C1806.48 845 1807 845.522 1807 846.167L1807 850.833C1807 851.478 1806.48 852 1805.83 852L1660.17 852C1659.52 852 1659 851.478 1659 850.833Z" fill="#8296A5" fill-rule="evenodd" fill-opacity="1"/><path d="M1809 664C1809 663.448 1809.45 663 1810 663L1956 663C1956.55 663 1957 663.448 1957 664L1957 668C1957 668.552 1956.55 669 1956 669L1810 669C1809.45 669 1809 668.552 1809 668Z" fill="#8296A5" fill-rule="evenodd" fill-opacity="1"/><path d="M1630 662.88C1630 657.423 1634.42 653 1639.88 653L1960.12 653C1965.58 653 1970 657.423 1970 662.88L1970 745.12C1970 750.576 1965.58 755 1960.12 755L1639.88 755C1634.42 755 1630 750.576 1630 745.12Z" fill="#00284B" fill-rule="evenodd" fill-opacity="1"/><text fill="#FFFFFF" fill-opacity="1" font-family="Helvetica Neue,Helvetica Neue_MSFontService,sans-serif" font-style="normal" font-variant="normal" font-weight="700" font-stretch="normal" font-size="83" text-anchor="start" direction="ltr" writing-mode="lr-tb" unicode-bidi="normal" text-decoration="none" transform="matrix(1 0 0 1 1653.27 731)">Metabo</text><text fill="#8296A5" fill-opacity="1" font-family="Arial,Arial_MSFontService,sans-serif" font-style="normal" font-variant="normal" font-weight="700" font-stretch="normal" font-size="14" text-anchor="start" direction="ltr" writing-mode="lr-tb" unicode-bidi="normal" text-decoration="none" transform="matrix(1 0 0 1 1821.5 813)">G</text></g></g></svg>